<svg width="139" height="136" viewBox="0 0 139 136" fill="none" xmlns="http://www.w3.org/2000/svg">
<path fill-rule="evenodd" clip-rule="evenodd" d="M69.3372 0.108398C31.1041 0.108398 0.137024 31.0755 0.137024 69.3086C0.137024 99.9297 19.9456 125.793 47.4527 134.962C50.9127 135.568 52.2102 133.492 52.2102 131.675C52.2102 130.032 52.1237 124.582 52.1237 118.787C34.7371 121.987 30.2391 114.548 28.8551 110.656C28.0766 108.666 24.7031 102.525 21.7621 100.881C19.3401 99.5837 15.8801 96.3832 21.6756 96.2967C27.1251 96.2102 31.0176 101.314 32.3151 103.39C38.5431 113.856 48.4907 110.915 52.4697 109.099C53.0752 104.601 54.8917 101.573 56.8812 99.8432C41.4841 98.1132 25.3951 92.1447 25.3951 65.6756C25.3951 58.1501 28.0766 51.9221 32.4881 47.078C31.7961 45.348 29.3741 38.255 33.1801 28.74C33.1801 28.74 38.9756 26.9235 52.2102 35.833C57.7462 34.276 63.6282 33.4975 69.5102 33.4975C75.3922 33.4975 81.2743 34.276 86.8103 35.833C100.045 26.837 105.84 28.74 105.84 28.74C109.646 38.255 107.224 45.348 106.532 47.078C110.944 51.9221 113.625 58.0636 113.625 65.6756C113.625 92.2312 97.4498 98.1132 82.0528 99.8432C84.5613 102.006 86.7238 106.158 86.7238 112.645C86.7238 121.901 86.6373 129.34 86.6373 131.675C86.6373 133.492 87.9348 135.654 91.3948 134.962C105.132 130.324 117.069 121.495 125.526 109.718C133.983 97.9405 138.533 83.8077 138.537 69.3086C138.537 31.0755 107.57 0.108398 69.3372 0.108398Z" fill="#F8F8F8"/>
</svg>
