<svg width="464" height="412" viewBox="0 0 464 412" fill="none" xmlns="http://www.w3.org/2000/svg">
<path d="M448.716 256.607C420.199 267.986 392.281 280.812 366.359 297.831C321.343 327.386 280.399 361.513 245.513 402.566C240.393 408.555 236.231 411.55 231.988 411.24C227.746 411.54 223.584 408.595 218.463 402.566C183.578 361.513 142.604 327.386 97.6177 297.831C71.6659 280.862 43.7776 267.986 15.2605 256.607C-0.110946 250.479 -3.64439 243.841 3.98146 228.769C26.5596 184.132 40.0545 136.67 45.175 86.8322C47.5905 63.4955 47.9598 40.2686 44.8157 16.9618C44.087 11.5518 41.8811 5.07386 47.8101 1.27092C52.8907 -2.01299 57.6918 1.83986 62.1236 4.1356C85.4004 16.2132 108.547 28.5303 131.814 40.6079C165.093 57.8859 198.53 66.1206 232.028 66.0507C265.526 65.9808 298.964 57.8859 332.242 40.6079C355.509 28.5303 378.656 16.2132 401.933 4.1356C406.365 1.83986 411.166 -2.01299 416.247 1.27092C422.136 5.07386 419.93 11.5518 419.241 16.9618C416.097 40.2486 416.466 63.4755 418.882 86.8322C424.032 136.66 437.497 184.122 460.075 228.759C467.621 243.841 464.088 250.528 448.716 256.607Z" fill="#F8F8F8"/>
</svg>
