<svg width="128" height="128" viewBox="0 0 128 128" fill="none" xmlns="http://www.w3.org/2000/svg">
<path fill-rule="evenodd" clip-rule="evenodd" d="M0.892244 10.8268C0.892244 8.01571 2.00894 5.31977 3.99667 3.33204C5.9844 1.34431 8.68034 0.227614 11.4914 0.227614H117.149C118.542 0.225339 119.922 0.497858 121.209 1.02957C122.497 1.56128 123.667 2.34174 124.652 3.32626C125.638 4.31079 126.42 5.48005 126.953 6.76709C127.486 8.05414 127.76 9.43369 127.759 10.8268V116.484C127.761 117.877 127.488 119.257 126.955 120.545C126.423 121.833 125.642 123.003 124.657 123.988C123.672 124.974 122.502 125.755 121.215 126.288C119.928 126.821 118.548 127.095 117.154 127.095H11.4914C10.099 127.095 8.72028 126.82 7.43395 126.287C6.14763 125.754 4.97893 124.973 3.99463 123.988C3.01033 123.003 2.22972 121.834 1.6974 120.548C1.16508 119.261 0.891486 117.882 0.892244 116.49V10.8268ZM51.1085 48.5986H68.2875V57.2255C70.7672 52.2662 77.1105 47.8028 86.6428 47.8028C104.917 47.8028 109.248 57.6811 109.248 75.8058V109.379H90.7545V79.9347C90.7545 69.6124 88.2748 63.788 81.9776 63.788C73.2411 63.788 69.6081 70.0679 69.6081 79.9347V109.379H51.1085V48.5986ZM19.3918 108.589H37.8913V47.8028H19.3918V108.584V108.589ZM40.5382 27.9769C40.5731 29.5608 40.2912 31.1358 39.7092 32.6094C39.1271 34.0829 38.2566 35.4254 37.1487 36.5579C36.0408 37.6905 34.7179 38.5903 33.2575 39.2047C31.7971 39.819 30.2287 40.1355 28.6444 40.1355C27.0601 40.1355 25.4917 39.819 24.0313 39.2047C22.5709 38.5903 21.248 37.6905 20.1401 36.5579C19.0322 35.4254 18.1617 34.0829 17.5796 32.6094C16.9976 31.1358 16.7157 29.5608 16.7506 27.9769C16.8191 24.8678 18.1022 21.9091 20.3253 19.7345C22.5484 17.5599 25.5346 16.3421 28.6444 16.3421C31.7542 16.3421 34.7405 17.5599 36.9635 19.7345C39.1866 21.9091 40.4697 24.8678 40.5382 27.9769V27.9769Z" fill="#F2744C"/>
</svg>
